<?xml version="1.0" standalone="no"?>
<!DOCTYPE svg PUBLIC "-//W3C//DTD SVG 20010904//EN"
 "http://www.w3.org/TR/2001/REC-SVG-20010904/DTD/svg10.dtd">
<svg version="1.0" xmlns="http://www.w3.org/2000/svg"
 width="700.000000pt" height="700.000000pt" viewBox="0 0 700.000000 700.000000"
 preserveAspectRatio="xMidYMid meet">
<metadata>
Created by potrace 1.11, written by Peter Selinger 2001-2013
</metadata>
<g transform="translate(0.000000,700.000000) scale(0.100000,-0.100000)"
fill="#000000" stroke="none">
<path d="M3457 6564 c-1 -1 -59 -5 -129 -8 -70 -4 -135 -9 -145 -10 -10 -2
-47 -7 -83 -11 -51 -5 -211 -35 -330 -60 -13 -3 -236 -69 -265 -79 -146 -48
-401 -165 -541 -247 -94 -55 -287 -183 -315 -209 -9 -8 -45 -37 -80 -65 -111
-87 -259 -229 -369 -355 -36 -41 -68 -77 -71 -80 -11 -10 -127 -168 -175 -240
-167 -246 -308 -548 -392 -840 -31 -106 -65 -252 -76 -325 -4 -22 -11 -67 -16
-100 -9 -61 -17 -136 -25 -235 -6 -68 -6 -340 0 -395 2 -22 6 -69 10 -105 10
-109 14 -144 21 -180 4 -19 8 -44 9 -55 4 -26 32 -160 45 -210 6 -22 13 -50
15 -61 10 -45 88 -273 122 -354 209 -508 508 -898 977 -1277 52 -42 243 -167
336 -220 342 -195 746 -332 1115 -378 28 -3 66 -8 85 -10 194 -25 485 -21 718
10 125 16 149 21 292 51 97 20 369 105 445 139 17 8 59 26 95 41 36 14 91 40
124 56 l58 29 257 -170 c212 -141 264 -171 293 -171 29 0 101 44 439 269 399
266 477 326 541 419 76 111 119 251 120 392 0 207 -118 433 -283 540 l-56 36
24 50 c132 271 247 633 278 874 3 25 8 56 11 70 13 66 26 270 26 400 1 328
-52 658 -153 965 -22 66 -43 129 -48 140 -5 11 -24 56 -42 100 -115 276 -319
602 -516 825 -540 612 -1309 988 -2113 1036 -110 6 -230 10 -233 8z"/>
</g>
</svg>
